<?xml version="1.0"?>
<svg xmlns="http://www.w3.org/2000/svg" id="Icons" viewBox="0 0 74 74" width="512" height="512" style="fill:white;"><path d="M50.532,71H23.468a6.267,6.267,0,0,1-6.22-5.524l-4-41.38a1,1,0,0,1,1-1.1H59.759a1,1,0,0,1,1,1.1l-4,41.358A6.271,6.271,0,0,1,50.532,71ZM15.343,25l3.893,40.262A4.262,4.262,0,0,0,23.468,69H50.532a4.266,4.266,0,0,0,4.234-3.76L58.657,25Z"/><path d="M63.613,25H9.387A2.39,2.39,0,0,1,7,22.613V14.387A2.39,2.39,0,0,1,9.387,12H63.613A2.39,2.39,0,0,1,66,14.387v8.227A2.39,2.39,0,0,1,63.613,25ZM9.387,14A.387.387,0,0,0,9,14.387v8.227A.387.387,0,0,0,9.387,23H63.613A.387.387,0,0,0,64,22.613V14.387A.387.387,0,0,0,63.613,14Z"/><path d="M47,14H27a1,1,0,0,1-1-1V6.395A3.4,3.4,0,0,1,29.395,3H44.605A3.4,3.4,0,0,1,48,6.395V13A1,1,0,0,1,47,14ZM28,12H46V6.395A1.4,1.4,0,0,0,44.605,5H29.395A1.4,1.4,0,0,0,28,6.395Z"/><path d="M27.181,57a1,1,0,0,1-.994-.9l-2.182-21a1,1,0,1,1,1.989-.207l2.182,21a1,1,0,0,1-.891,1.1A.948.948,0,0,1,27.181,57Z"/><path d="M37,57a1,1,0,0,1-1-1V35a1,1,0,0,1,2,0V56A1,1,0,0,1,37,57Z"/><path d="M46.819,57a.948.948,0,0,1-.1-.005,1,1,0,0,1-.891-1.1l2.182-21a1,1,0,1,1,1.989.207l-2.182,21A1,1,0,0,1,46.819,57Z"/></svg>
